<svg width="100" height="100" viewBox="0 0 100 100" fill="none" xmlns="http://www.w3.org/2000/svg">
<rect width="100" height="100" rx="50" fill="white"/>
<g clip-path="url(#clip0_2207_11)">
<path d="M67.163 30.11C70.5766 33.0556 73.9903 36.0034 77.387 38.9685C74.0358 42.007 70.5517 44.9113 67.1482 47.8968C67.1562 45.8991 67.1357 43.9025 67.1551 41.9059C64.996 41.9093 62.837 41.8934 60.679 41.9129C59.6415 41.9152 58.6654 42.4378 57.9665 43.192C51.7676 49.6996 45.5563 56.196 39.3597 62.706C38.671 63.4269 37.7108 63.898 36.7074 63.8888C32.7655 63.914 28.8222 63.8693 24.8814 63.9151C23.4165 63.8715 22.1598 62.5328 22.1609 61.0623C22.0882 59.4681 23.4814 58.0939 25.0337 58.0468C28.1643 58.017 31.2984 58.0639 34.4291 58.0251C35.5712 58.0181 36.5768 57.3466 37.2973 56.4984C43.4018 50.0871 49.5132 43.6812 55.6212 37.2721C56.3075 36.5168 57.2939 36.0514 58.3121 36.0285C61.2597 36.0159 64.2087 36.04 67.1552 36.017C67.1492 34.0481 67.1334 32.0792 67.163 30.11Z" fill="url(#paint0_linear_2207_11)"/>
<path d="M24.3595 36.0149C28.6208 35.9793 32.8971 36.0183 37.1651 36.0057C38.2651 35.9564 39.3856 36.3725 40.1333 37.2011C41.9071 39.0419 43.6617 40.9044 45.4254 42.7553C46.148 43.5003 46.5447 44.5845 46.2935 45.6183C46.0197 46.8837 44.8185 47.8899 43.5254 47.8774C42.6471 47.9175 41.8379 47.4659 41.1913 46.9054C39.9822 45.6057 38.8231 44.2556 37.5948 42.9731C36.8914 42.251 35.88 41.8946 34.8868 41.9083C31.7062 41.8946 28.5255 41.9175 25.3447 41.898C24.0788 41.859 22.7288 41.256 22.2617 39.9885C21.5424 38.3748 22.6424 36.3255 24.3595 36.0149Z" fill="#8C8C8C"/>
<path d="M50.3585 52.4837C51.4573 51.5978 53.1801 51.7262 54.1494 52.7496C55.4777 54.1226 56.7778 55.5243 58.1073 56.8963C58.7982 57.6309 59.7937 58.0504 60.7971 58.0401C62.9176 58.0321 65.0379 58.0493 67.1596 58.0298C67.138 56.0688 67.1517 54.1076 67.1551 52.1467C70.5948 55.0854 74.0085 58.055 77.4164 61.0315C74.013 64.0057 70.5913 66.9582 67.164 69.9037C67.1209 67.898 67.1686 65.8911 67.1426 63.8854C64.1914 63.8579 61.2403 63.883 58.2892 63.8728C57.2721 63.8636 56.2926 63.3742 55.6119 62.6223C53.7107 60.643 51.7789 58.6945 49.8971 56.6981C48.8073 55.4981 49.0494 53.4223 50.3585 52.4837Z" fill="#8C8C8C"/>
</g>
<defs>
<linearGradient id="paint0_linear_2207_11" x1="49.7726" y1="30.11" x2="49.7265" y2="65.702" gradientUnits="userSpaceOnUse">
<stop stop-color="#C12A23"/>
<stop offset="0.932655" stop-color="#102D71" stop-opacity="0.63"/>
<stop offset="0.9999" stop-color="#001AFF" stop-opacity="0.0260417"/>
<stop offset="1" stop-color="#0A3068" stop-opacity="0.66"/>
</linearGradient>
<clipPath id="clip0_2207_11">
<rect width="55.4545" height="40" fill="white" transform="translate(22 30)"/>
</clipPath>
</defs>
</svg>
